# xmcd CD database file
#
# Track frame offsets:
#	183
#	37233
#	70645
#	95223
#	121808
#	149508
#	180183
#	199535
#	224190
#	253443
#	265135
#	284128
#	297563
#	312878
#
# Disc length: 4226 seconds
#
# Revision: 3
# Processed by: cddbd v1.5.1PL0 Copyright (c) Steve Scherf et al.
# Submitted via: CDex 1.51
#
DISCID=f010800e
DTITLE=Paul Bley - Blues for Red
DYEAR=1992
DGENRE=Jazz
TTITLE0=Blues for Red
TTITLE1=Rear Projection
TTITLE2=Into the night
TTITLE3=Above board
TTITLE4=Delirious boogie
TTITLE5=Underground
TTITLE6=Up hill
TTITLE7=Latin swing
TTITLE8=Downtown
TTITLE9=Late night blue
TTITLE10=Baby narrows
TTITLE11=Capri-cious
TTITLE12=Solo mio
TTITLE13=Exit
EXTD=YEAR: 1992
EXTT0=
EXTT1=
EXTT2=
EXTT3=
EXTT4=
EXTT5=
EXTT6=
EXTT7=
EXTT8=
EXTT9=
EXTT10=
EXTT11=
EXTT12=
EXTT13=
PLAYORDER=
